<?xml version="1.0" encoding="UTF-8"?>
<svg id="_レイヤー_2" data-name="レイヤー_2" xmlns="http://www.w3.org/2000/svg" viewBox="0 0 113.89 135.31">
  <defs>
    <style>
      .cls-1 {
        fill: #003894;
      }
    </style>
  </defs>
  <g id="_レイヤー_1-2" data-name="レイヤー_1">
    <g>
      <g>
        <path d="M2.07,134.99H0v-15.5h7.1c2.52,0,5.05.89,5.05,4.17,0,2.29-1.15,3.13-2.14,3.71.88.37,1.75.76,1.84,2.91l.13,2.81c.02.86.13,1.19.77,1.55v.35h-2.54c-.3-.95-.36-3.3-.36-3.89,0-1.27-.26-2.76-2.74-2.76H2.07v6.65ZM2.07,126.54h4.81c1.52,0,3.12-.39,3.12-2.68s-1.73-2.59-2.76-2.59H2.07v5.27Z"/>
        <path d="M24.44,131.44c-.06.54-.58,2.14-1.99,3.09-.51.35-1.24.78-3.04.78-3.14,0-5-2.4-5-5.66,0-3.5,1.67-6.28,5.37-6.28,3.23,0,4.81,2.59,4.81,6.59h-8.17c0,2.35,1.09,3.71,3.25,3.71,1.77,0,2.82-1.38,2.89-2.22h1.88ZM22.64,128.44c-.11-1.75-.83-3.37-3.12-3.37-1.73,0-3.1,1.62-3.1,3.37h6.22Z"/>
        <path d="M26.77,127.13c.09-2.7,1.86-3.76,4.62-3.76.9,0,4.15.26,4.15,3.15v6.5c0,.47.24.67.62.67.17,0,.41-.04.62-.09v1.38c-.32.09-.6.22-1.03.22-1.67,0-1.92-.86-1.99-1.73-.73.8-1.86,1.84-4.04,1.84-2.05,0-3.51-1.32-3.51-3.26,0-.95.28-3.15,3.4-3.54l3.1-.39c.45-.04.98-.22.98-1.34,0-1.19-.86-1.84-2.63-1.84-2.14,0-2.44,1.32-2.57,2.18h-1.73ZM33.65,129.22c-.3.24-.77.41-3.1.71-.92.13-2.39.41-2.39,1.84,0,1.23.62,1.96,2.03,1.96,1.75,0,3.46-1.14,3.46-2.66v-1.86Z"/>
        <path d="M40.65,134.99h-1.88v-15.5h1.88v15.5Z"/>
        <path d="M49.82,126.91c-.02-.71-.28-1.9-2.65-1.9-.58,0-2.22.19-2.22,1.6,0,.93.58,1.14,2.03,1.51l1.88.47c2.33.58,3.14,1.45,3.14,2.98,0,2.33-1.9,3.74-4.43,3.74-4.43,0-4.75-2.59-4.81-3.95h1.82c.06.89.32,2.31,2.97,2.31,1.35,0,2.57-.54,2.57-1.79,0-.91-.62-1.21-2.22-1.62l-2.18-.54c-1.56-.39-2.59-1.19-2.59-2.74,0-2.48,2.03-3.61,4.23-3.61,4,0,4.28,2.98,4.28,3.54h-1.82Z"/>
        <path d="M58.71,123.37c3.57,0,5.19,3.04,5.19,5.96s-1.62,5.96-5.19,5.96-5.19-3.04-5.19-5.96,1.62-5.96,5.19-5.96ZM58.71,133.65c2.69,0,3.25-2.81,3.25-4.32s-.56-4.32-3.25-4.32-3.25,2.81-3.25,4.32.56,4.32,3.25,4.32Z"/>
        <path d="M68.38,125.27v9.72h-1.88v-9.72h-1.54v-1.58h1.54v-1.94c0-1.71,1.07-2.48,2.91-2.48.28,0,.56.02.86.04v1.71c-.24-.02-.53-.04-.77-.04-.81,0-1.11.41-1.11,1.32v1.4h1.88v1.58h-1.88Z"/>
        <path d="M74.3,125.27v7.34c0,.89.75.89,1.13.89h.66v1.49c-.68.06-1.22.15-1.41.15-1.86,0-2.27-1.06-2.27-2.42v-7.45h-1.52v-1.58h1.52v-3.15h1.88v3.15h1.8v1.58h-1.8Z"/>
        <path d="M85.79,134.99h-1.88v-11.29h1.88v11.29ZM83.91,121.64v-2.16h1.88v2.16h-1.88Z"/>
        <path d="M97.72,134.99h-1.88v-6.95c0-1.96-.56-2.96-2.39-2.96-1.07,0-2.95.69-2.95,3.76v6.15h-1.88v-11.29h1.77v1.6h.04c.41-.6,1.45-1.92,3.38-1.92,1.73,0,3.91.71,3.91,3.93v7.69Z"/>
        <path d="M107.49,127.49c-.24-1.51-1.07-2.42-2.65-2.42-2.33,0-3.08,2.25-3.08,4.25s.47,4.34,3.06,4.34c1.26,0,2.35-.95,2.67-2.68h1.82c-.19,1.79-1.28,4.32-4.55,4.32s-5-2.4-5-5.66c0-3.5,1.67-6.28,5.37-6.28,2.93,0,4.04,2.16,4.19,4.12h-1.82Z"/>
        <path d="M113.89,134.99h-2.22v-2.29h2.22v2.29Z"/>
      </g>
      <g>
        <path class="cls-1" d="M.16,22.31h17.41v19.61s14.55-20.95,36.14-19.53v16.12c-15.27-4.27-36.07,10.4-36.07,19.79v32.2H.16V22.31Z"/>
        <path class="cls-1" d="M66.53,65.31c-.75-4.24-2.25-8.74-11.73-8.74s-10.73,3.62-10.73,6.49c0,10.48,41.57,2.87,41.57,27.34,0,19.35-18.73,22.84-29.08,22.84-15.1,0-31.45-5.24-31.95-22.67h17.97c0,5.32,3.5,9.44,14.48,9.44,8.99,0,11.11-4.37,11.11-6.86,0-11.11-41.19-2.75-41.19-27.59,0-9.74,6.12-22.22,26.84-22.22,12.98,0,28.46,3.24,29.83,21.97h-17.1Z"/>
        <rect class="cls-1" x="91.23" y="22.31" width="17.47" height="68.19"/>
        <rect class="cls-1" x="91.23" width="17.47" height="16.23"/>
        <rect class="cls-1" x="63.73" y="15.76" width="17.47" height="16.23"/>
      </g>
    </g>
  </g>
</svg>